# xmcd
#
# Track frame offsets:
# 225
# 14852
# 26176
# 39975
# 59255
# 80476
# 99622
# 112303
# 128775
# 152544
#
# Disc length: 2290 seconds
#
#
# Revision: 0
# Processed by: cddbd v1.5.2PL0 Copyright (c) Steve Scherf et al.
# Submitted via: FreeRIP 2.96 
#
DISCID=8608ef0a
DTITLE=The Hushpuppies - Songs from the Big House
DYEAR=2001
DGENRE=Crossover
TTITLE0=Highway 25
TTITLE1=Getting By
TTITLE2=Train Song
TTITLE3=When I'm Dancing With You
TTITLE4=Running Free
TTITLE5=Blue Skies
TTITLE6=Redneck Saturday Night
TTITLE7=Good Ole Boy Gone Bad
TTITLE8=This Old Town
TTITLE9=White Trash Superhero
EXTD=thehushpuppies.com
EXTT0=
EXTT1=
EXTT2=
EXTT3=
EXTT4=
EXTT5=
EXTT6=
EXTT7=
EXTT8=
EXTT9=
PLAYORDER=
